<svg width="871" height="871" viewBox="0 0 871 871" fill="none" xmlns="http://www.w3.org/2000/svg">
<rect width="871" height="871" fill="#221E22"/>
<path d="M52.6523 747H49.7354V708.314H36.2832V705.596H66.1045V708.314H52.6523V747ZM90.2617 747L89.5537 742.129H89.3271C87.779 744.111 86.1836 745.518 84.541 746.349C82.9173 747.16 80.9915 747.566 78.7637 747.566C75.7428 747.566 73.3923 746.792 71.7119 745.244C70.0316 743.696 69.1914 741.553 69.1914 738.815C69.1914 735.813 70.4375 733.482 72.9297 731.82C75.4408 730.159 79.0658 729.281 83.8047 729.187L89.667 729.017V726.978C89.667 724.051 89.0723 721.842 87.8828 720.351C86.6934 718.859 84.777 718.113 82.1338 718.113C79.2829 718.113 76.3281 718.906 73.2695 720.492L72.2217 718.057C75.6012 716.471 78.943 715.678 82.2471 715.678C85.6266 715.678 88.1471 716.556 89.8086 718.312C91.4889 720.067 92.3291 722.805 92.3291 726.524V747H90.2617ZM78.9336 745.018C82.2188 745.018 84.8053 744.083 86.6934 742.214C88.6003 740.326 89.5537 737.711 89.5537 734.369V731.339L84.1729 731.565C79.8493 731.773 76.7624 732.453 74.9121 733.604C73.0807 734.737 72.165 736.512 72.165 738.929C72.165 740.854 72.7503 742.355 73.9209 743.432C75.1104 744.489 76.7812 745.018 78.9336 745.018ZM121.414 738.985C121.414 741.742 120.366 743.866 118.271 745.357C116.175 746.83 113.201 747.566 109.35 747.566C105.234 747.566 101.967 746.934 99.5508 745.669V742.639C102.647 744.187 105.913 744.961 109.35 744.961C112.389 744.961 114.693 744.461 116.26 743.46C117.846 742.44 118.639 741.09 118.639 739.41C118.639 737.862 118.006 736.559 116.741 735.502C115.495 734.445 113.437 733.406 110.567 732.387C107.49 731.273 105.328 730.319 104.082 729.526C102.836 728.715 101.892 727.808 101.25 726.808C100.627 725.788 100.315 724.551 100.315 723.098C100.315 720.794 101.278 718.972 103.204 717.632C105.149 716.291 107.858 715.621 111.332 715.621C114.655 715.621 117.808 716.244 120.791 717.49L119.743 720.039C116.722 718.793 113.919 718.17 111.332 718.17C108.821 718.17 106.829 718.585 105.356 719.416C103.884 720.247 103.147 721.398 103.147 722.871C103.147 724.476 103.714 725.76 104.847 726.723C105.998 727.686 108.236 728.762 111.559 729.951C114.334 730.952 116.354 731.858 117.619 732.67C118.884 733.463 119.828 734.369 120.451 735.389C121.093 736.408 121.414 737.607 121.414 738.985ZM132.091 733.491L147.809 716.216H151.207L139.086 729.356L152.255 747H148.885L137.188 731.452L132.147 736.04V747H129.344V702.934H132.147V725.023L131.949 733.491H132.091ZM176.525 738.985C176.525 741.742 175.478 743.866 173.382 745.357C171.286 746.83 168.312 747.566 164.461 747.566C160.345 747.566 157.079 746.934 154.662 745.669V742.639C157.758 744.187 161.025 744.961 164.461 744.961C167.501 744.961 169.804 744.461 171.371 743.46C172.957 742.44 173.75 741.09 173.75 739.41C173.75 737.862 173.118 736.559 171.853 735.502C170.606 734.445 168.549 733.406 165.679 732.387C162.601 731.273 160.439 730.319 159.193 729.526C157.947 728.715 157.003 727.808 156.361 726.808C155.738 725.788 155.427 724.551 155.427 723.098C155.427 720.794 156.39 718.972 158.315 717.632C160.26 716.291 162.969 715.621 166.443 715.621C169.766 715.621 172.919 716.244 175.902 717.49L174.854 720.039C171.834 718.793 169.03 718.17 166.443 718.17C163.932 718.17 161.94 718.585 160.468 719.416C158.995 720.247 158.259 721.398 158.259 722.871C158.259 724.476 158.825 725.76 159.958 726.723C161.11 727.686 163.347 728.762 166.67 729.951C169.445 730.952 171.465 731.858 172.73 732.67C173.995 733.463 174.939 734.369 175.562 735.389C176.204 736.408 176.525 737.607 176.525 738.985ZM210.963 718.651H203.713V747H200.909V718.651H195.188V717.009L200.909 715.961V713.582C200.909 709.806 201.598 707.04 202.977 705.284C204.374 703.509 206.649 702.622 209.802 702.622C211.501 702.622 213.2 702.877 214.899 703.387L214.248 705.822C212.738 705.35 211.237 705.114 209.745 705.114C207.555 705.114 205.997 705.766 205.072 707.068C204.166 708.352 203.713 710.448 203.713 713.355V716.216H210.963V718.651ZM242.37 731.565C242.37 736.588 241.152 740.515 238.717 743.347C236.281 746.16 232.921 747.566 228.635 747.566C225.935 747.566 223.556 746.915 221.498 745.612C219.44 744.31 217.864 742.44 216.769 740.005C215.674 737.569 215.126 734.756 215.126 731.565C215.126 726.543 216.344 722.635 218.779 719.841C221.215 717.028 224.557 715.621 228.805 715.621C233.034 715.621 236.347 717.047 238.745 719.897C241.162 722.729 242.37 726.619 242.37 731.565ZM218.071 731.565C218.071 735.795 218.996 739.099 220.847 741.478C222.716 743.838 225.35 745.018 228.748 745.018C232.146 745.018 234.771 743.838 236.621 741.478C238.49 739.099 239.425 735.795 239.425 731.565C239.425 727.317 238.481 724.023 236.593 721.682C234.724 719.34 232.09 718.17 228.691 718.17C225.293 718.17 222.669 719.34 220.818 721.682C218.987 724.004 218.071 727.299 218.071 731.565ZM263.016 715.621C264.318 715.621 265.715 715.753 267.207 716.018L266.669 718.708C265.385 718.387 264.054 718.227 262.676 718.227C260.051 718.227 257.899 719.34 256.219 721.568C254.538 723.796 253.698 726.609 253.698 730.008V747H250.895V716.216H253.273L253.557 721.767H253.755C255.02 719.501 256.37 717.915 257.805 717.009C259.24 716.084 260.977 715.621 263.016 715.621ZM296.688 745.074C298.463 745.074 300.011 744.923 301.333 744.621V746.887C299.974 747.34 298.407 747.566 296.632 747.566C293.913 747.566 291.902 746.84 290.6 745.386C289.316 743.932 288.674 741.647 288.674 738.532V718.651H284.114V717.009L288.674 715.734L290.09 708.768H291.534V716.216H300.568V718.651H291.534V738.136C291.534 740.496 291.95 742.242 292.78 743.375C293.611 744.508 294.914 745.074 296.688 745.074ZM333.448 731.565C333.448 736.588 332.23 740.515 329.795 743.347C327.359 746.16 323.999 747.566 319.713 747.566C317.013 747.566 314.634 746.915 312.576 745.612C310.518 744.31 308.942 742.44 307.847 740.005C306.752 737.569 306.204 734.756 306.204 731.565C306.204 726.543 307.422 722.635 309.857 719.841C312.293 717.028 315.635 715.621 319.883 715.621C324.112 715.621 327.425 717.047 329.823 719.897C332.24 722.729 333.448 726.619 333.448 731.565ZM309.149 731.565C309.149 735.795 310.075 739.099 311.925 741.478C313.794 743.838 316.428 745.018 319.826 745.018C323.225 745.018 325.849 743.838 327.699 741.478C329.568 739.099 330.503 735.795 330.503 731.565C330.503 727.317 329.559 724.023 327.671 721.682C325.802 719.34 323.168 718.17 319.77 718.17C316.371 718.17 313.747 719.34 311.896 721.682C310.065 724.004 309.149 727.299 309.149 731.565ZM353.244 715.621C355.472 715.621 357.398 716.027 359.021 716.839C360.645 717.651 362.099 719.038 363.383 721.002H363.553C363.439 718.623 363.383 716.291 363.383 714.007V702.934H366.158V747H364.317L363.609 742.299H363.383C361.042 745.811 357.681 747.566 353.301 747.566C349.053 747.566 345.805 746.245 343.559 743.602C341.312 740.958 340.188 737.107 340.188 732.047C340.188 726.723 341.302 722.654 343.53 719.841C345.758 717.028 348.996 715.621 353.244 715.621ZM353.244 718.17C349.883 718.17 347.354 719.35 345.654 721.71C343.974 724.07 343.134 727.497 343.134 731.99C343.134 740.713 346.523 745.074 353.301 745.074C356.775 745.074 359.324 744.064 360.947 742.044C362.571 740.024 363.383 736.691 363.383 732.047V731.565C363.383 726.808 362.58 723.39 360.976 721.313C359.39 719.218 356.812 718.17 353.244 718.17ZM395.215 747L394.507 742.129H394.28C392.732 744.111 391.137 745.518 389.494 746.349C387.87 747.16 385.945 747.566 383.717 747.566C380.696 747.566 378.345 746.792 376.665 745.244C374.985 743.696 374.145 741.553 374.145 738.815C374.145 735.813 375.391 733.482 377.883 731.82C380.394 730.159 384.019 729.281 388.758 729.187L394.62 729.017V726.978C394.62 724.051 394.025 721.842 392.836 720.351C391.646 718.859 389.73 718.113 387.087 718.113C384.236 718.113 381.281 718.906 378.223 720.492L377.175 718.057C380.554 716.471 383.896 715.678 387.2 715.678C390.58 715.678 393.1 716.556 394.762 718.312C396.442 720.067 397.282 722.805 397.282 726.524V747H395.215ZM383.887 745.018C387.172 745.018 389.758 744.083 391.646 742.214C393.553 740.326 394.507 737.711 394.507 734.369V731.339L389.126 731.565C384.802 731.773 381.715 732.453 379.865 733.604C378.034 734.737 377.118 736.512 377.118 738.929C377.118 740.854 377.703 742.355 378.874 743.432C380.063 744.489 381.734 745.018 383.887 745.018ZM402.125 716.216H405.014L411.527 733.491C413.51 738.797 414.765 742.374 415.294 744.225H415.464C416.257 741.789 417.55 738.155 419.344 733.321L425.857 716.216H428.746L414.954 751.984C413.84 754.892 412.906 756.855 412.15 757.875C411.395 758.895 410.508 759.659 409.488 760.169C408.488 760.679 407.27 760.934 405.835 760.934C404.759 760.934 403.56 760.735 402.238 760.339V757.903C403.333 758.205 404.513 758.356 405.778 758.356C406.741 758.356 407.591 758.13 408.327 757.677C409.063 757.224 409.724 756.516 410.31 755.553C410.914 754.609 411.603 753.098 412.377 751.021C413.17 748.964 413.68 747.623 413.906 747L402.125 716.216Z" fill="#989788"/>
<path d="M40.6592 684H39.5586V672.04C39.5586 670.954 39.6035 669.827 39.6934 668.659C39.5811 668.771 39.465 668.88 39.3452 668.985C39.2254 669.09 38.0687 669.999 35.875 671.714L35.2349 670.917L39.6934 667.581H40.6592V684ZM49.8906 684L56.6514 668.659H47.3638V667.581H57.9878V668.401L51.2046 684H49.8906ZM72.8232 667.581L66.7026 684H65.5347L71.644 667.581H72.8232ZM93.3301 684H92.1733L82.4478 669.423H82.3579C82.4478 671.16 82.4927 672.47 82.4927 673.354V684H81.3921V667.581H82.5376L92.252 682.136H92.3193C92.252 680.788 92.2183 679.508 92.2183 678.295V667.581H93.3301V684ZM107.806 677.879C107.806 679.871 107.323 681.428 106.357 682.551C105.392 683.667 104.059 684.225 102.359 684.225C101.289 684.225 100.345 683.966 99.5293 683.45C98.7132 682.933 98.0881 682.192 97.6538 681.226C97.2196 680.26 97.0024 679.145 97.0024 677.879C97.0024 675.888 97.4854 674.338 98.4512 673.23C99.417 672.114 100.742 671.557 102.427 671.557C104.104 671.557 105.418 672.122 106.369 673.252C107.327 674.375 107.806 675.918 107.806 677.879ZM98.1704 677.879C98.1704 679.556 98.5373 680.867 99.271 681.81C100.012 682.746 101.057 683.214 102.404 683.214C103.752 683.214 104.793 682.746 105.526 681.81C106.268 680.867 106.638 679.556 106.638 677.879C106.638 676.195 106.264 674.888 105.515 673.96C104.774 673.032 103.729 672.567 102.382 672.567C101.034 672.567 99.9935 673.032 99.2598 673.96C98.5335 674.881 98.1704 676.187 98.1704 677.879ZM113.859 684L109.143 671.792H110.288L113.444 680.092C113.863 681.155 114.178 682.083 114.387 682.877H114.455C114.762 681.859 115.076 680.923 115.398 680.069L118.554 671.792H119.699L114.982 684H113.859ZM133.243 667.581L127.123 684H125.955L132.064 667.581H133.243ZM151.032 684H140.756V683.012L145.125 678.452C146.353 677.179 147.214 676.206 147.708 675.532C148.202 674.858 148.565 674.215 148.797 673.601C149.029 672.987 149.146 672.343 149.146 671.669C149.146 670.688 148.824 669.891 148.18 669.277C147.536 668.663 146.701 668.356 145.675 668.356C144.305 668.356 142.995 668.854 141.745 669.85L141.138 669.075C142.508 667.922 144.028 667.345 145.698 667.345C147.128 667.345 148.251 667.727 149.067 668.491C149.89 669.254 150.302 670.306 150.302 671.646C150.302 672.732 150.025 673.784 149.471 674.802C148.925 675.813 147.921 677.063 146.461 678.553L142.25 682.877V682.922H151.032V684ZM164.475 675.746C164.475 678.628 164.033 680.762 163.15 682.147C162.274 683.532 160.945 684.225 159.163 684.225C157.449 684.225 156.146 683.513 155.255 682.091C154.364 680.661 153.918 678.546 153.918 675.746C153.918 672.886 154.349 670.767 155.21 669.389C156.078 668.012 157.396 667.323 159.163 667.323C160.893 667.323 162.21 668.038 163.116 669.468C164.022 670.89 164.475 672.983 164.475 675.746ZM155.131 675.746C155.131 678.291 155.465 680.174 156.131 681.395C156.797 682.607 157.808 683.214 159.163 683.214C160.578 683.214 161.608 682.585 162.251 681.327C162.903 680.069 163.229 678.209 163.229 675.746C163.229 673.32 162.903 671.478 162.251 670.22C161.608 668.962 160.578 668.333 159.163 668.333C157.748 668.333 156.722 668.962 156.086 670.22C155.45 671.478 155.131 673.32 155.131 675.746ZM177.312 684H167.036V683.012L171.404 678.452C172.632 677.179 173.493 676.206 173.987 675.532C174.481 674.858 174.845 674.215 175.077 673.601C175.309 672.987 175.425 672.343 175.425 671.669C175.425 670.688 175.103 669.891 174.459 669.277C173.815 668.663 172.98 668.356 171.955 668.356C170.584 668.356 169.274 668.854 168.024 669.85L167.417 669.075C168.788 667.922 170.307 667.345 171.977 667.345C173.407 667.345 174.53 667.727 175.346 668.491C176.17 669.254 176.582 670.306 176.582 671.646C176.582 672.732 176.305 673.784 175.75 674.802C175.204 675.813 174.201 677.063 172.741 678.553L168.529 682.877V682.922H177.312V684ZM186.565 684H185.465V672.04C185.465 670.954 185.51 669.827 185.6 668.659C185.487 668.771 185.371 668.88 185.251 668.985C185.132 669.09 183.975 669.999 181.781 671.714L181.141 670.917L185.6 667.581H186.565V684Z" fill="#4D4C45"/>
<rect x="36" y="793" width="610" height="50" rx="25" fill="#181518"/>
<path d="M72.6724 819.221H68.3218L66.8276 823H66L70.3066 812.248H70.7827L75.0015 823H74.1592L72.6724 819.221ZM68.5928 818.547H72.4233L70.9658 814.687C70.8438 814.384 70.6973 813.964 70.5264 813.427C70.3945 813.896 70.2505 814.321 70.0942 814.702L68.5928 818.547ZM79.2568 814.885C79.833 814.885 80.3311 814.99 80.751 815.2C81.1709 815.41 81.5469 815.769 81.8789 816.276H81.9229C81.8936 815.661 81.8789 815.058 81.8789 814.467V811.604H82.5967V823H82.1206L81.9375 821.784H81.8789C81.2734 822.692 80.4043 823.146 79.2715 823.146C78.1729 823.146 77.333 822.805 76.752 822.121C76.1709 821.438 75.8804 820.441 75.8804 819.133C75.8804 817.756 76.1685 816.704 76.7446 815.976C77.3208 815.249 78.1582 814.885 79.2568 814.885ZM79.2568 815.544C78.3877 815.544 77.7334 815.849 77.2939 816.459C76.8594 817.07 76.6421 817.956 76.6421 819.118C76.6421 821.374 77.5186 822.502 79.2715 822.502C80.1699 822.502 80.8291 822.241 81.249 821.718C81.6689 821.196 81.8789 820.334 81.8789 819.133V819.008C81.8789 817.778 81.6714 816.894 81.2563 816.357C80.8462 815.815 80.1797 815.544 79.2568 815.544ZM88.1924 814.885C88.7686 814.885 89.2666 814.99 89.6865 815.2C90.1064 815.41 90.4824 815.769 90.8145 816.276H90.8584C90.8291 815.661 90.8145 815.058 90.8145 814.467V811.604H91.5322V823H91.0562L90.873 821.784H90.8145C90.209 822.692 89.3398 823.146 88.207 823.146C87.1084 823.146 86.2686 822.805 85.6875 822.121C85.1064 821.438 84.8159 820.441 84.8159 819.133C84.8159 817.756 85.104 816.704 85.6802 815.976C86.2563 815.249 87.0938 814.885 88.1924 814.885ZM88.1924 815.544C87.3232 815.544 86.6689 815.849 86.2295 816.459C85.7949 817.07 85.5776 817.956 85.5776 819.118C85.5776 821.374 86.4541 822.502 88.207 822.502C89.1055 822.502 89.7646 822.241 90.1846 821.718C90.6045 821.196 90.8145 820.334 90.8145 819.133V819.008C90.8145 817.778 90.6069 816.894 90.1919 816.357C89.7817 815.815 89.1152 815.544 88.1924 815.544ZM103.661 823V817.836C103.661 817.036 103.493 816.455 103.156 816.093C102.819 815.727 102.296 815.544 101.588 815.544C100.636 815.544 99.938 815.786 99.4937 816.269C99.0542 816.748 98.8345 817.526 98.8345 818.605V823H98.1094V815.039H98.7246L98.8638 816.13H98.9077C99.4253 815.3 100.346 814.885 101.669 814.885C103.476 814.885 104.379 815.854 104.379 817.792V823H103.661ZM110.172 823.146C109.015 823.146 108.112 822.79 107.462 822.077C106.818 821.364 106.496 820.366 106.496 819.082C106.496 817.812 106.808 816.796 107.433 816.035C108.058 815.268 108.9 814.885 109.96 814.885C110.897 814.885 111.637 815.212 112.179 815.866C112.721 816.521 112.992 817.409 112.992 818.532V819.118H107.257C107.267 820.212 107.521 821.047 108.019 821.623C108.522 822.199 109.24 822.487 110.172 822.487C110.626 822.487 111.024 822.456 111.366 822.392C111.713 822.329 112.15 822.192 112.677 821.982V822.641C112.228 822.836 111.813 822.968 111.432 823.037C111.051 823.11 110.631 823.146 110.172 823.146ZM109.96 815.529C109.193 815.529 108.578 815.783 108.114 816.291C107.65 816.794 107.379 817.521 107.301 818.474H112.223C112.223 817.551 112.023 816.831 111.623 816.313C111.222 815.791 110.668 815.529 109.96 815.529ZM121.554 823L119.811 817.675C119.699 817.314 119.555 816.784 119.379 816.086H119.335L119.181 816.628L118.852 817.69L117.079 823H116.361L114.083 815.039H114.86L116.134 819.653C116.432 820.795 116.627 821.635 116.72 822.172H116.764C117.052 821.03 117.262 820.271 117.394 819.895L119.035 815.039H119.694L121.254 819.88C121.605 821.027 121.82 821.787 121.898 822.158H121.942C121.981 821.84 122.177 820.991 122.528 819.609L123.744 815.039H124.477L122.316 823H121.554ZM132.042 822.502C132.501 822.502 132.902 822.463 133.244 822.385V822.971C132.892 823.088 132.487 823.146 132.028 823.146C131.325 823.146 130.805 822.958 130.468 822.583C130.136 822.207 129.97 821.616 129.97 820.81V815.668H128.791V815.244L129.97 814.914L130.336 813.112H130.709V815.039H133.046V815.668H130.709V820.708C130.709 821.318 130.817 821.77 131.032 822.062C131.247 822.355 131.583 822.502 132.042 822.502ZM139.799 823L139.616 821.74H139.557C139.157 822.253 138.744 822.617 138.319 822.832C137.899 823.042 137.401 823.146 136.825 823.146C136.044 823.146 135.436 822.946 135.001 822.546C134.567 822.146 134.35 821.591 134.35 820.883C134.35 820.107 134.672 819.504 135.316 819.074C135.966 818.645 136.903 818.417 138.129 818.393L139.645 818.349V817.822C139.645 817.065 139.491 816.494 139.184 816.108C138.876 815.722 138.38 815.529 137.697 815.529C136.959 815.529 136.195 815.734 135.404 816.145L135.133 815.515C136.007 815.104 136.872 814.899 137.726 814.899C138.6 814.899 139.252 815.126 139.682 815.581C140.116 816.035 140.333 816.743 140.333 817.705V823H139.799ZM136.869 822.487C137.719 822.487 138.388 822.246 138.876 821.762C139.369 821.274 139.616 820.598 139.616 819.733V818.95L138.224 819.008C137.106 819.062 136.308 819.238 135.829 819.536C135.355 819.829 135.119 820.288 135.119 820.913C135.119 821.411 135.27 821.799 135.573 822.077C135.88 822.351 136.312 822.487 136.869 822.487ZM147.855 820.927C147.855 821.64 147.584 822.189 147.042 822.575C146.5 822.956 145.731 823.146 144.735 823.146C143.671 823.146 142.826 822.983 142.201 822.656V821.872C143.002 822.272 143.847 822.473 144.735 822.473C145.521 822.473 146.117 822.343 146.522 822.084C146.933 821.821 147.138 821.472 147.138 821.037C147.138 820.637 146.974 820.3 146.647 820.026C146.325 819.753 145.792 819.484 145.05 819.221C144.254 818.933 143.695 818.686 143.373 818.481C143.051 818.271 142.807 818.037 142.641 817.778C142.479 817.514 142.399 817.194 142.399 816.818C142.399 816.223 142.648 815.751 143.146 815.405C143.649 815.058 144.35 814.885 145.248 814.885C146.107 814.885 146.923 815.046 147.694 815.368L147.423 816.027C146.642 815.705 145.917 815.544 145.248 815.544C144.599 815.544 144.083 815.651 143.703 815.866C143.322 816.081 143.131 816.379 143.131 816.76C143.131 817.175 143.278 817.507 143.571 817.756C143.869 818.005 144.447 818.283 145.307 818.591C146.024 818.85 146.547 819.084 146.874 819.294C147.201 819.499 147.445 819.733 147.606 819.997C147.772 820.261 147.855 820.571 147.855 820.927ZM150.617 819.506L154.682 815.039H155.561L152.426 818.437L155.832 823H154.96L151.935 818.979L150.631 820.166V823H149.906V811.604H150.631V817.316L150.58 819.506H150.617Z" fill="#4D4C45"/>
<path d="M674.484 826L672.618 821.232H666.609L664.764 826H663L668.927 810.947H670.393L676.289 826H674.484ZM672.075 819.663L670.332 815.018C670.106 814.43 669.874 813.709 669.634 812.854C669.484 813.511 669.269 814.232 668.988 815.018L667.225 819.663H672.075ZM685.743 824.493H685.651C684.865 825.634 683.689 826.205 682.124 826.205C680.654 826.205 679.509 825.703 678.688 824.698C677.875 823.693 677.468 822.264 677.468 820.412C677.468 818.559 677.878 817.12 678.699 816.095C679.519 815.069 680.661 814.557 682.124 814.557C683.648 814.557 684.817 815.11 685.63 816.218H685.764L685.692 815.408L685.651 814.618V810.045H687.353V826H685.969L685.743 824.493ZM682.339 824.78C683.501 824.78 684.342 824.465 684.861 823.836C685.388 823.201 685.651 822.179 685.651 820.771V820.412C685.651 818.819 685.384 817.684 684.851 817.007C684.325 816.324 683.48 815.982 682.318 815.982C681.32 815.982 680.555 816.372 680.021 817.151C679.495 817.923 679.232 819.017 679.232 820.432C679.232 821.868 679.495 822.951 680.021 823.683C680.548 824.414 681.32 824.78 682.339 824.78ZM698.622 824.493H698.53C697.744 825.634 696.568 826.205 695.002 826.205C693.533 826.205 692.388 825.703 691.567 824.698C690.754 823.693 690.347 822.264 690.347 820.412C690.347 818.559 690.757 817.12 691.578 816.095C692.398 815.069 693.54 814.557 695.002 814.557C696.527 814.557 697.696 815.11 698.509 816.218H698.643L698.571 815.408L698.53 814.618V810.045H700.232V826H698.848L698.622 824.493ZM695.218 824.78C696.38 824.78 697.221 824.465 697.74 823.836C698.267 823.201 698.53 822.179 698.53 820.771V820.412C698.53 818.819 698.263 817.684 697.73 817.007C697.204 816.324 696.359 815.982 695.197 815.982C694.199 815.982 693.434 816.372 692.9 817.151C692.374 817.923 692.111 819.017 692.111 820.432C692.111 821.868 692.374 822.951 692.9 823.683C693.427 824.414 694.199 824.78 695.218 824.78ZM712.937 824.8C713.237 824.8 713.528 824.78 713.808 824.739C714.088 824.691 714.311 824.643 714.475 824.595V825.897C714.29 825.986 714.017 826.058 713.654 826.113C713.299 826.174 712.978 826.205 712.69 826.205C710.517 826.205 709.43 825.06 709.43 822.77V816.084H707.82V815.264L709.43 814.557L710.147 812.157H711.132V814.762H714.393V816.084H711.132V822.698C711.132 823.375 711.292 823.895 711.614 824.257C711.935 824.619 712.376 824.8 712.937 824.8ZM723.642 826L723.303 824.4H723.221C722.661 825.104 722.1 825.583 721.54 825.836C720.986 826.082 720.292 826.205 719.458 826.205C718.344 826.205 717.469 825.918 716.833 825.344C716.204 824.77 715.89 823.953 715.89 822.893C715.89 820.624 717.705 819.434 721.334 819.325L723.242 819.263V818.566C723.242 817.684 723.05 817.035 722.667 816.618C722.292 816.194 721.687 815.982 720.853 815.982C719.916 815.982 718.856 816.269 717.674 816.843L717.151 815.541C717.705 815.24 718.31 815.004 718.966 814.833C719.629 814.663 720.292 814.577 720.955 814.577C722.295 814.577 723.286 814.875 723.929 815.469C724.578 816.064 724.903 817.018 724.903 818.33V826H723.642ZM719.796 824.8C720.856 824.8 721.687 824.51 722.288 823.929C722.896 823.348 723.201 822.534 723.201 821.488V820.473L721.499 820.545C720.145 820.593 719.167 820.805 718.566 821.181C717.971 821.55 717.674 822.127 717.674 822.914C717.674 823.529 717.858 823.997 718.228 824.318C718.604 824.64 719.126 824.8 719.796 824.8ZM735.669 822.934C735.669 823.98 735.28 824.787 734.5 825.354C733.721 825.921 732.627 826.205 731.219 826.205C729.729 826.205 728.567 825.969 727.733 825.498V823.918C728.273 824.192 728.851 824.407 729.466 824.564C730.088 824.722 730.686 824.8 731.26 824.8C732.149 824.8 732.833 824.66 733.311 824.38C733.79 824.093 734.029 823.659 734.029 823.078C734.029 822.64 733.837 822.268 733.455 821.96C733.079 821.646 732.34 821.276 731.24 820.853C730.194 820.463 729.449 820.125 729.004 819.837C728.567 819.543 728.239 819.212 728.02 818.843C727.808 818.474 727.702 818.033 727.702 817.52C727.702 816.604 728.075 815.883 728.82 815.356C729.565 814.823 730.587 814.557 731.886 814.557C733.096 814.557 734.278 814.803 735.434 815.295L734.829 816.679C733.701 816.214 732.679 815.982 731.763 815.982C730.956 815.982 730.348 816.108 729.938 816.361C729.527 816.614 729.322 816.963 729.322 817.407C729.322 817.708 729.397 817.964 729.548 818.176C729.705 818.388 729.955 818.59 730.296 818.781C730.638 818.973 731.294 819.25 732.265 819.612C733.598 820.097 734.497 820.586 734.962 821.078C735.434 821.57 735.669 822.189 735.669 822.934ZM740.13 820.248C740.424 819.831 740.872 819.284 741.473 818.607L745.103 814.762H747.123L742.57 819.55L747.441 826H745.38L741.412 820.688L740.13 821.796V826H738.448V810.045H740.13V818.504C740.13 818.88 740.103 819.461 740.048 820.248H740.13Z" fill="#0267C1"/>
</svg>
